# AST/ASF file generated using VICON BodyLanguage
# -----------------------------------------------
:version 1.10
:name VICON
:units
  mass 1.0
  length 0.45
  angle deg
:documentation
   .ast/.asf automatically generated from VICON data using
   VICON BodyBuilder and BodyLanguage model FoxedUp or BRILLIANT.MOD
:root
   order TX TY TZ RX RY RZ
   axis XYZ
   position 0 0 0  
   orientation 0 0 0 
:bonedata
  begin
     id 1 
     name lhipjoint
     direction 0.528046 -0.759594 0.379717 
     length 2.39752 
     axis 0 0 0  XYZ
  end
  begin
     id 2 
     name lfemur
     direction 0.34202 -0.939693 0  
     length 7.31175  
     axis 0 0 20  XYZ
    dof rx ry rz
    limits (-160.0 20.0)
           (-70.0 70.0)
           (-60.0 70.0)
  end
  begin
     id 3 
     name ltibia
     direction 0.34202 -0.939693 0   
     length 7.52482   
     axis 0 0 20   XYZ
    dof rx
    limits (-10.0 170.0)
  end
  begin
     id 4 
     name lfoot
     direction 0.0675379 -0.185559 0.980309   
     length 2.00961   
     axis -90 7.62852e-016 20   XYZ
    dof rx rz
    limits (-45.0 90.0)
           (-70.0 20.0)
  end
  begin
     id 5 
     name ltoes
     direction 1.5352e-011 -4.22286e-011 1   
     length 1.01383   
     axis -90 7.62852e-016 20   XYZ
    dof rx
    limits (-90.0 20.0)
  end
  begin
     id 6 
     name rhipjoint
     direction -0.510274 -0.769251 0.384544   
     length 2.36742  
     axis 0 0 0  XYZ 
  end
  begin
     id 7 
     name rfemur
     direction -0.34202 -0.939693 0   
     length 7.45325   
     axis 0 0 -20   XYZ
    dof rx ry rz
    limits (-160.0 20.0)
           (-70.0 70.0)
           (-70.0 60.0)
  end
  begin
     id 8 
     name rtibia
     direction -0.34202 -0.939693 0   
     length 7.49587   
     axis 0 0 -20   XYZ
    dof rx
    limits (-10.0 170.0)
 end
 begin
     id 9 
     name rfoot
     direction -0.106475 -0.292536 0.950308   
     length 2.20898  
     axis -90 -7.62852e-016 -20   XYZ
    dof rx rz
    limits (-45.0 90.0)
           (-20.0 70.0)
  end
  begin
     id 10 
     name rtoes
     direction -1.53597e-011 -4.22023e-011 1   
     length 1.10065   
     axis -90 -7.62852e-016 -20   XYZ
    dof rx
    limits (-90.0 20.0)
  end
  begin
     id 11 
     name lowerback
     direction 0.0260024 0.998026 -0.0571652   
     length 2.11214   
     axis 0 0 0   XYZ
    dof rx ry rz
    limits (-20.0 45.0)
           (-30.0 30.0)
           (-30.0 30.0)
  end
  begin
     id 12 
     name upperback
     direction 0.0216202 0.999542 -0.0211766   
     length 2.11689   
     axis 0 0 0   XYZ
    dof rx ry rz
    limits (-20.0 45.0)
           (-30.0 30.0)
           (-30.0 30.0)
  end
  begin
     id 13 
     name thorax
     direction 0.00883312 0.999944 0.00589057   
     length 2.11821   
     axis 0 0 0   XYZ
    dof rx ry rz
    limits (-20.0 45.0)
           (-30.0 30.0)
           (-30.0 30.0)
  end
  begin
     id 14 
     name lowerneck
     direction -0.059386 0.994433 0.0870401   
     length 1.81176   
     axis 0 0 0   XYZ
    dof rx ry rz
    limits (-20.0 45.0)
           (-30.0 30.0)
           (-30.0 30.0)
  end
  begin
     id 15 
     name upperneck
     direction 0.0506457 0.97328 -0.223967   
     length 1.82382   
     axis 0 0 0   XYZ
    dof rx ry rz
    limits (-20.0 45.0)
           (-30.0 30.0)
           (-30.0 30.0)
  end
  begin
     id 16
     name head
     direction 0.0205902 0.996147 -0.0852487  
     length 1.84805  
     axis 0 0 0   XYZ
    dof rx ry rz
    limits (-20.0 45.0)
           (-30.0 30.0)
           (-30.0 30.0)
  end
  begin
     id 17 
     name lclavicle
     direction 0.949493 0.303881 -0.0782325  
     length 3.60584  
     axis 0 0 0   XYZ
    dof ry rz
    limits (-20.0 10.0)
           (0.0 20.0)
  end
  begin
     id 18 
     name lhumerus
     direction 1 -4.48965e-011 1.48782e-027   
     length 4.95681   
     axis 180 -30 -90   XYZ
    dof rx ry rz
    limits (-60.0 90.0)
           (-90.0 90.0)
           (-90.0 90.0)
  end
  begin
     id 19
     name lradius
     direction 1 -4.48952e-011 2.06528e-027   
     length 3.40915   
     axis 180 -30 -90   XYZ
    dof rx
    limits (-10.0 170.0)
  end
  begin
     id 20
     name lwrist
     direction 1 -4.48964e-011 1.28021e-027   
     length 1.70457   
     axis -1.61767e-015 90 90   XYZ
    dof ry
    limits (-180.0 0.0)
 end
  begin
     id 21 
     name lhand
     direction 1 -4.49094e-011 2.54887e-027   
     length 0.616403   
     axis -1.63363e-015 90 90   XYZ
    dof rx rz
    limits (-90.0 90.0)
           (-45.0 45.0)
  end
  begin
     id 22 
     name lfingers
     direction 1 -4.49002e-011 5.11407e-027   
     length 0.49696   
     axis -3.26723e-015 90 90   XYZ
    dof rx
    limits (0.0 90.0)
  end
  begin
     id 23
     name lthumb
     direction 0.707107 -6.34998e-011 0.707107   
     length 0.713539   
     axis -90 45 -2.25915e-014   XYZ
    dof rx rz
    limits (-45.0 45.0)
           (-45.0 45.0)
  end
  begin
     id 24 
     name rclavicle
     direction -0.937751 0.334612 -0.0930482   
     length 3.46287  
     axis 0 0 0   XYZ 
    dof ry rz
    limits (-10.0 20.0)
           (-20.0 0.0)
  end
  begin
     id 25 
     name rhumerus
     direction -1 -4.48962e-011 3.59972e-027  
     length 5.352   
     axis 180 30 90   XYZ
    dof rx ry rz
    limits (-90.0 60.0)
           (-90.0 90.0)
           (-90.0 90.0)
  end
  begin
     id 26 
     name rradius
     direction -1 -4.48987e-011 -3.76925e-027   
     length 3.43721   
     axis 180 30 90   XYZ
    dof rx
    limits (-10.0 170.0)
  end
  begin
     id 27 
     name rwrist
     direction -1 -4.48943e-011 1.28112e-027   
     length 1.7186   
     axis -1.61767e-015 -90 -90   XYZ
    dof ry
    limits (-180.0 0.0)
  end
  begin
     id 28
     name rhand
     direction -1 -4.49027e-011 2.55483e-027   
     length 0.72009   
     axis -1.63363e-015 -90 -90   XYZ
    dof rx rz
    limits (-90.0 90.0)
           (-45.0 45.0)
  end
  begin
     id 29
     name rfingers
     direction -1 -4.48827e-011 5.14506e-027   
     length 0.580555   
     axis -3.26723e-015 -90 -90   XYZ
    dof rx
    limits (0.0 90.0)
  end
  begin
     id 30
     name rthumb
     direction -0.707107 -6.34936e-011 0.707107   
     length 0.833564   
     axis -90 -45 2.25915e-014   XYZ
    dof rx rz
    limits (-45.0 45.0)
           (-45.0 45.0)
  end
:hierarchy
  begin
    root lhipjoint rhipjoint lowerback
    lhipjoint lfemur
    lfemur ltibia
    ltibia lfoot
    lfoot ltoes
    rhipjoint rfemur
    rfemur rtibia
    rtibia rfoot
    rfoot rtoes
    lowerback upperback
    upperback thorax
    thorax lowerneck lclavicle rclavicle
    lowerneck upperneck
    upperneck head
    lclavicle lhumerus
    lhumerus lradius
    lradius lwrist
    lwrist lhand lthumb
    lhand lfingers
    rclavicle rhumerus
    rhumerus rradius
    rradius rwrist
    rwrist rhand rthumb
    rhand rfingers
  end

#!OML:ASF H:\Terrain\Patient Classification 1\Terrain2\Thursday\justin.ASF
:FULLY-SPECIFIED
:DEGREES
1
root 22.9995 24.2495 21.1181 176.028 -81.6721 -171.543
lowerback 10.3526 0.232231 0.318358
upperback 3.23893 0.266255 1.93157
thorax -2.44096 0.0708054 1.79204
lowerneck -14.0329 1.20775 -8.68192
upperneck 39.0774 1.54794 2.83583
head 16.2247 -0.856985 2.89138
rclavicle 8.64713e-015 2.78299e-015
rhumerus -30.2499 -0.642442 -83.4373
rradius 38.3639
rwrist -16.2151
rhand -21.0962 12.3637
rfingers 7.12502
rthumb 5.28146 -17.5505
lclavicle 8.64713e-015 2.78299e-015
lhumerus -37.8837 2.90503 82.611
lradius 37.3281
lwrist 9.47926
lhand -16.5862 21.9426
lfingers 7.12502
lthumb 9.63459 51.7023
rfemur -24.7944 0.449458 23.5344
rtibia 45.1649
rfoot -22.6963 0.567723
rtoes 1.53879
lfemur -17.6196 -0.843887 -19.3501
ltibia 28.7465
lfoot -12.7182 -3.12607
ltoes 16.5869
2
root 22.9607 24.2267 21.1019 175.532 -82.0755 -171.127
lowerback 10.3214 0.0296987 0.18623
upperback 3.14223 -0.00656086 2.09112
thorax -2.51609 -0.0633377 2.06609
lowerneck -13.7996 1.22433 -8.69003
upperneck 39.0395 1.62134 2.60511
head 16.1481 -0.863523 2.79698
rclavicle -1.20265e-014 1.55052e-014
rhumerus -30.3827 -1.0204 -83.1153
rradius 38.0548
rwrist -16.0336
rhand -20.9851 12.5533
rfingers 7.12502
rthumb 5.38876 -17.3582
lclavicle -1.20265e-014 1.55052e-014
lhumerus -37.8848 3.27744 82.6261
lradius 37.2196
lwrist 9.07522
lhand -16.2362 21.7663
lfingers 7.12502
lthumb 9.97229 51.5101
rfemur -24.6999 0.368837 23.5153
rtibia 44.1073
rfoot -22.6892 1.3472
rtoes 0.92877
lfemur -17.6584 -0.816287 -19.3169
ltibia 29.1917
lfoot -12.8117 -3.5973
ltoes 16.7733
3
root 22.9142 24.211 21.0898 176.001 -82.4915 -171.605
lowerback 10.1879 -0.0831689 0.0137368
upperback 3.0023 -0.163014 2.20236
thorax -2.58161 -0.137451 2.29802
lowerneck -13.4635 1.17189 -8.73906
upperneck 38.9901 1.54329 2.49083
head 16.0497 -0.921515 2.73492
rclavicle -4.44284e-014 9.54166e-015
rhumerus -30.6819 -1.66853 -82.6776
rradius 37.7855
rwrist -15.5217
rhand -20.7004 12.6754
rfingers 7.12502
rthumb 5.66362 -17.2289
lclavicle -4.44284e-014 9.54166e-015
lhumerus -37.8785 3.42356 82.7728
lradius 37.1268
lwrist 8.70938
lhand -16.0955 21.7889
lfingers 7.12502
lthumb 10.1081 51.5261
rfemur -24.6969 0.462914 23.3562
rtibia 43.1108
rfoot -22.8322 2.15756
rtoes -0.792308
lfemur -17.5256 -0.899665 -19.4218
ltibia 29.23
lfoot -12.6671 -4.15891
ltoes 19.3993
4
root 22.8671 24.2019 21.0826 178.021 -82.7088 -173.632
lowerback 9.97465 -0.0500063 -0.113206
upperback 2.95812 -0.131061 2.05969
thorax -2.51155 -0.118415 2.21574
lowerneck -13.3992 1.08044 -8.62167
upperneck 39.0894 1.27876 2.66775
head 16.1021 -0.996678 2.74926
rclavicle -2.13694e-014 -8.34896e-015
rhumerus -30.849 -2.63183 -82.449
rradius 37.5066
rwrist -15.1172
rhand -20.4332 12.5973
rfingers 7.12502
rthumb 5.92161 -17.2999
lclavicle -2.13694e-014 -8.34896e-015
lhumerus -37.6703 3.08925 82.8505
lradius 37.1821
lwrist 8.75585
lhand -16.2423 21.8235
lfingers 7.12502
lthumb 9.96638 51.5676
rfemur -24.6855 0.906575 23.0161
rtibia 42.1264
rfoot -22.7268 2.33113
rtoes -1.10138
lfemur -17.4349 -1.02303 -19.7757
ltibia 29.339
lfoot -12.6661 -4.14409
ltoes 19.8067
5
root 22.8276 24.1957 21.0757 178.875 -82.7933 -174.578
lowerback 9.91316 -0.0484506 -0.255378
upperback 2.97552 -0.143036 2.08682
thorax -2.45876 -0.124681 2.32501
lowerneck -13.572 1.09522 -8.72303
upperneck 39.2963 1.28515 2.80888
head 16.2489 -1.00243 2.83739
rclavicle -5.1684e-015 -1.94809e-014
rhumerus -30.7756 -3.22589 -82.1296
rradius 37.0503
rwrist -15.0788
rhand -20.5074 12.7215
rfingers 7.12502
rthumb 5.84991 -17.1777
lclavicle -5.1684e-015 -1.94809e-014
lhumerus -37.3341 3.34338 82.9107
lradius 37.0494
lwrist 8.55573
lhand -16.4032 22.0389
lfingers 7.12502
lthumb 9.81118 51.7903
rfemur -24.5522 1.50336 22.8253
rtibia 41.1987
rfoot -22.2877 2.56156
rtoes 1.00466
lfemur -17.24 -1.03546 -19.959
ltibia 29.3477
lfoot -12.8444 -3.84689
ltoes 18.3173
6
root 22.7884 24.189 21.0663 179.115 -82.9104 -174.96
lowerback 9.9502 -0.156035 -0.418485
upperback 2.97673 -0.299093 2.24177
thorax -2.46945 -0.203361 2.59724
lowerneck -13.6998 1.17168 -9.06692
upperneck 39.4081 1.50333 2.84549
head 16.3199 -0.967129 2.95482
rclavicle 2.29596e-014 -3.97569e-015
rhumerus -30.7658 -3.32309 -81.803
rradius 36.6041
rwrist -15.1302
rhand -20.9867 12.9943
rfingers 7.12502
rthumb 5.38721 -16.9172
lclavicle 2.29596e-014 -3.97569e-015
lhumerus -37.1579 3.99038 82.9868
lradius 36.8971
lwrist 8.1796
lhand -16.822 22.1865
lfingers 7.12502
lthumb 9.40709 51.9566
rfemur -24.3556 1.8174 22.7516
rtibia 40.3425
rfoot -22.1545 2.83271
rtoes -1.05779
lfemur -16.9363 -1.11346 -19.9997
ltibia 29.3424
lfoot -12.9225 -3.89903
ltoes 19.4816
7
root 22.741 24.1852 21.0544 180.718 -83.0421 -176.651
lowerback 9.82455 -0.209875 -0.521738
upperback 2.97227 -0.380953 2.15688
thorax -2.40091 -0.243062 2.57537
lowerneck -13.6758 1.11859 -8.9892
upperneck 39.3974 1.43398 2.73995
head 16.3179 -0.99946 2.88168
rclavicle -1.8487e-014 -3.57812e-015
rhumerus -30.9083 -3.40908 -81.7664
rradius 36.2499
rwrist -15.3391
rhand -21.7431 13.1054
rfingers 7.12502
rthumb 4.6568 -16.8234
lclavicle -1.8487e-014 -3.57812e-015
lhumerus -37.0571 4.0694 83.0191
lradius 36.9905
lwrist 8.28461
lhand -17.2034 22.1419
lfingers 7.12502
lthumb 9.0391 51.9283
rfemur -24.1835 2.16448 22.5335
rtibia 39.5471
rfoot -21.9691 2.49015
rtoes -3.45197
lfemur -16.691 -1.09236 -20.2261
ltibia 29.3756
lfoot -12.7722 -4.20929
ltoes 20.8717
8
root 22.6941 24.1835 21.0404 181.585 -83.1086 -177.556
lowerback 9.62046 -0.246863 -0.652499
upperback 2.9543 -0.440461 2.16472
thorax -2.30313 -0.272174 2.66177
lowerneck -13.6223 1.07917 -8.96271
upperneck 39.4773 1.37495 2.65532
head 16.3548 -1.0404 2.82947
rclavicle -1.88845e-015 -5.56597e-015
rhumerus -31.0209 -3.6637 -81.6063
rradius 35.7674
rwrist -15.1344
rhand -22.0694 13.2636
rfingers 7.12502
rthumb 4.34174 -16.6719
lclavicle -1.88845e-015 -5.56597e-015
lhumerus -36.9105 4.39513 83.0155
lradius 36.941
lwrist 8.15092
lhand -17.1755 21.9809
lfingers 7.12502
lthumb 9.06597 51.7661
rfemur -23.9789 2.99709 22.3738
rtibia 38.8246
rfoot -21.2772 1.89388
rtoes -2.30922
lfemur -16.5215 -0.903663 -20.3432
ltibia 29.4104
lfoot -12.7375 -4.57
ltoes 20.4928
9
root 22.6481 24.1746 21.0298 181.868 -83.1998 -177.943
lowerback 9.50135 -0.321442 -0.790568
upperback 2.93158 -0.548525 2.31269
thorax -2.25254 -0.326632 2.90451
lowerneck -13.4546 1.10101 -9.26916
upperneck 39.5255 1.44582 2.69789
head 16.3315 -1.05959 2.91154
rclavicle -2.98177e-015 7.95139e-016
rhumerus -31.1252 -4.08937 -81.2426
rradius 35.1979
rwrist -14.2548
rhand -22.585 12.963
rfingers 7.12502
rthumb 3.84385 -16.9821
lclavicle -2.98177e-015 7.95139e-016
lhumerus -36.8283 4.81419 83.1532
lradius 36.799
lwrist 8.13174
lhand -17.3167 21.5376
lfingers 7.12502
lthumb 8.92972 51.3286
rfemur -23.6772 3.57726 22.2651
rtibia 38.2003
rfoot -20.433 2.06936
rtoes -0.455559
lfemur -16.2354 -0.965684 -20.3902
ltibia 29.4044
lfoot -12.7487 -4.77667
ltoes 21.5185
